<svg xmlns="http://www.w3.org/2000/svg" xml:space="preserve" width="1.70666in" height="1.70666in" version="1.1" style="shape-rendering:geometricPrecision; text-rendering:geometricPrecision; image-rendering:optimizeQuality; fill-rule:evenodd; clip-rule:evenodd" viewBox="0 0 1707 1707" xmlns:xlink="http://www.w3.org/1999/xlink">
 <defs>
  <style type="text/css">
    .fil0 {fill:#083e6a; fill-rule:evenodd;}
  </style>
 </defs>
 <g id="Layer_x0020_1">
  <metadata id="CorelCorpID_0Corel-Layer"></metadata>
  <path class="fil0" d="M1141 1463c-7,0 -15,-3 -20,-9l-137 -152c-9,-11 -9,-28 2,-38l75 -67c11,-10 28,-9 38,2l54 60 230 -193c11,-9 28,-8 38,4l64 77c10,11 8,28 -3,37l-324 273c-5,4 -11,6 -17,6zm-33 -175c-16,0 -28,-14 -26,-29l-5 -5 -35 32 102 114 283 -239 -30 -37 -229 193c-24,20 -44,-11 -60,-29zm-318 -5c-107,-11 -336,-43 -415,-46l0 60c0,15 -12,27 -27,27l-294 0c-15,0 -27,-12 -27,-27l0 -681c0,-15 12,-27 27,-27l294 0c27,0 27,24 27,39 145,-168 294,-376 293,-574 0,-9 4,-17 11,-22 77,-55 127,-26 149,-4 86,84 74,335 2,448 -1,9 -1,24 6,30 6,6 24,6 46,0 89,-31 287,-46 367,37 25,26 49,71 25,145 12,23 35,78 28,134 213,33 377,217 377,440 0,245 -199,444 -444,444 -239,0 -434,-188 -445,-423zm-468 -71c0,0 0,-1 0,-1l0 -569 -241 0 0 629 241 0 0 -59zm53 -28c72,2 309,34 416,45 17,-235 218,-419 458,-412 10,-73 -39,-109 -29,-136 17,-44 14,-77 -9,-101 -57,-58 -225,-54 -312,-24 -87,31 -136,-27 -120,-96 1,-4 2,-7 4,-9 66,-98 71,-324 8,-385 -7,-7 -26,-25 -70,2 -6,230 -186,462 -346,641l0 475zm-174 37c-45,0 -81,-37 -81,-81 0,-45 36,-82 81,-82 45,0 81,37 81,82 0,44 -36,81 -81,81zm0 -109c-37,0 -37,55 0,55 37,0 37,-55 0,-55zm1034 -242c-216,0 -392,176 -392,392 0,216 176,391 392,391 215,0 391,-175 391,-391 0,-216 -176,-392 -391,-392zm0 751c-198,0 -359,-161 -359,-359 0,-198 161,-359 359,-359 197,0 358,161 358,359 0,198 -161,359 -358,359zm0 -665c-169,0 -306,137 -306,306 0,168 137,305 306,305 168,0 305,-137 305,-305 0,-169 -137,-306 -305,-306z"></path>
 </g>
</svg>
