<svg version="1.1" id="Layer_1" xmlns="http://www.w3.org/2000/svg" xmlns:xlink="http://www.w3.org/1999/xlink" x="0px" y="0px" viewBox="0 0 182.2847 237.3484" enable-background="new 0 0 182.2847 237.3484" xml:space="preserve">
<g>
	<path fill="#083e6a" d="M98.3383,104.6884c1.5889,2.3115,2.1826,5.103,1.6719,7.8608c-0.3856,2.0836-1.3758,3.9224-2.7612,5.3628l31.8868-5.9039
		c1.4818-0.2744,2.8285-0.9637,3.9156-1.9509c1.0707,1.9951,2.1834,3.9519,3.3413,5.8633
		c1.2061-4.0429,2.5996-7.9453,4.1631-11.6933c-0.2763-2.2761-0.4678-4.5596-0.6196-6.8454l3.7814-7.6631
		c1.0835,6.3747,1.9514,13.0789,2.1591,19.6893l4.8423-7.2432l-3.8584-33.938c-0.3164-2.7866,0.4707-5.5298,2.2178-7.7246
		c1.7461-2.1943,4.2432-3.5776,7.0303-3.894c0.3965-0.0459,0.8018-0.0688,1.2021-0.0688c5.334,0,9.8115,4.0044,10.417,9.3149
		l4.293,37.7617c0.2803,2.4639-0.3252,4.9575-1.7051,7.0215l-20.7344,31.0132h2.5385v9.667h10.416v9.0835l5.7989-24.6452
		c5.7476-1.8696,10.7941-6.2883,12.7503-16.355c2.586-22.2149,1.1231-35.3457-5.6816-55.5196
		c-5.0352-14.6425-17.4102-19.2793-25.9473-17.1503c-4.0319,1.0047-6.9952,4.1943-8.699,8.3282
		c-1.7009,2.7996-3.4994,8.3163-5.1202,14.8774l-13.3572,27.0688l-26.7012,4.9438
		C96.6465,102.6743,97.5851,103.5928,98.3383,104.6884z"></path>
	<circle fill="#083e6a" cx="133.4344" cy="22.5" r="22.5"></circle>
	<path fill="#083e6a" d="M137.8702,196.6508l2.2748,29.1684c0.5112,6.5527,5.9863,11.5293,12.4487,11.5293c0.3262,0,0.6548-0.0127,0.9854-0.0391
		c6.8828-0.5361,12.0273-6.5508,11.4907-13.4336l-2.5339-32.4866v5.2616H137.8702z"></path>
	<path fill="#083e6a" d="M46.3861,110.6752l-4.1793-5.2579c1.3676,3.3842,2.6054,6.884,3.6852,10.5034c0.7218-1.1915,1.4208-2.4057,2.1091-3.63
		C47.4114,111.8127,46.8652,111.2774,46.3861,110.6752z"></path>
	<circle fill="#083e6a" cx="48.8504" cy="22.5" r="22.5"></circle>
	<path fill="#083e6a" d="M19.3822,59.827c1.8506-1.4702,4.1689-2.2803,6.5283-2.2803c3.2236,0,6.2207,1.4458,8.2246,3.9663L48.8475,80.022
		c-2.0529-10.6436-4.7939-20.8049-7.32-24.9626c-1.7039-4.1339-4.6672-7.3235-8.699-8.3282
		c-8.5371-2.129-20.9121,2.5078-25.9473,17.1503c-6.8047,20.1739-8.2676,33.3047-5.6816,55.5196
		c1.9562,10.0667,7.0027,14.4854,12.7503,16.355l7.6141,32.36l-4.3491,55.7598c-0.5366,6.8828,4.6079,12.8975,11.4907,13.4336
		c0.3306,0.0264,0.6587,0.0391,0.9854,0.0391c6.4619-0.001,11.9375-4.9775,12.4487-11.5293l4.5-57.7002
		c0.1001-1.2852,0.0005-2.5791-0.2944-3.835L37.052,124.787c-0.0085-0.872-0.0394-1.799-0.0985-2.8001
		c-0.9828-7.3309-0.6571-15.1849,0.2457-22.8698L17.6957,74.5804C14.0932,70.0477,14.85,63.4296,19.3822,59.827z"></path>
	<path fill="#083e6a" d="M32.1781,63.0687c-2.749-3.4585-7.7822-4.0327-11.2402-1.2847c-3.459,2.7495-4.0342,7.7817-1.2852,11.2407l28.6904,36.0947
		c1.2012,1.5107,2.9082,2.5366,4.8057,2.8882l35.0801,6.4956c0.4932,0.0913,0.9824,0.1353,1.4658,0.1353
		c3.7813,0,7.1445-2.6929,7.8574-6.5449c0.8047-4.3442-2.0654-8.5186-6.4092-9.3228l-32.1367-5.9507L32.1781,63.0687z"></path>
	<path fill="#083e6a" d="M149.6195,144.1509h-1.7096l-3.0085,4.5h0.2181v5.1666h-9.0148c-0.0963,0.0026-0.1902,0.0178-0.2869,0.0178
		c-0.1613,0-0.3212-0.0104-0.4816-0.0178h-12.2167v-5.1666h3.6597c-0.5875-1.0013-1.0194-2.0986-1.2524-3.2707
		c-0.0814-0.4094-0.1304-0.8195-0.1632-1.2293h-6.7441v9.6666H108.203v40.3334h51.8333v-40.3334h-10.4167V144.1509z"></path>
	<path fill="#083e6a" d="M131.3793,149.9847c1.3662,0.9136,2.9102,1.3506,4.4385,1.3506c2.582-0.0005,5.1162-1.2476,6.6582-3.5547l25.7617-38.5322
		c1.0518-1.5737,1.5127-3.4692,1.2988-5.3501l-4.293-37.7612c-0.5-4.3901-4.4668-7.5493-8.8525-7.0449
		c-4.3906,0.499-7.5449,4.4624-7.0459,8.8525l3.9619,34.8481l-24.1318,36.0952
		C126.7192,142.5609,127.7065,147.5292,131.3793,149.9847z"></path>
</g>
</svg>